<svg width="257" height="424" viewBox="0 0 257 424" fill="none" xmlns="http://www.w3.org/2000/svg">
<g filter="url(#filter0_d_506_60396)">
<rect x="2" y="2" width="249" height="415.654" rx="16" fill="url(#paint0_linear_506_60396)"/>
</g>
<line x1="15.2734" y1="24.6172" x2="90.8034" y2="24.6172" stroke="url(#paint1_radial_506_60396)" stroke-width="3"/>
<rect width="7.47589" height="7.47589" transform="matrix(0.70655 0.707664 -0.70655 0.707663 94.4258 19.4609)" fill="url(#paint2_linear_506_60396)"/>
<rect width="4.98393" height="4.98393" transform="matrix(0.70655 0.707664 -0.70655 0.707663 88.5195 21.1289)" fill="url(#paint3_linear_506_60396)"/>
<rect width="4.98393" height="4.98393" transform="matrix(0.70655 0.707664 -0.70655 0.707663 15.4766 21.1289)" fill="url(#paint4_linear_506_60396)"/>
<rect width="4.98393" height="4.98393" transform="matrix(0.70655 0.707664 -0.70655 0.707663 237.918 21.1289)" fill="url(#paint5_linear_506_60396)"/>
<line x1="237.488" y1="24.8984" x2="161.958" y2="24.8984" stroke="url(#paint6_radial_506_60396)" stroke-width="3"/>
<rect width="7.47589" height="7.47589" transform="matrix(-0.70655 -0.707664 0.70655 -0.707663 158.336 30.0469)" fill="url(#paint7_linear_506_60396)"/>
<rect width="4.98393" height="4.98393" transform="matrix(-0.70655 -0.707664 0.70655 -0.707663 164.25 28.375)" fill="url(#paint8_linear_506_60396)"/>
<line x1="15.2734" y1="388.73" x2="90.8034" y2="388.73" stroke="url(#paint9_radial_506_60396)" stroke-width="3"/>
<rect width="7.47589" height="7.47589" transform="matrix(0.70655 0.707664 -0.70655 0.707663 94.4258 383.574)" fill="url(#paint10_linear_506_60396)"/>
<rect width="4.98393" height="4.98393" transform="matrix(0.70655 0.707664 -0.70655 0.707663 88.5195 385.242)" fill="url(#paint11_linear_506_60396)"/>
<rect width="4.98393" height="4.98393" transform="matrix(0.70655 0.707664 -0.70655 0.707663 15.4766 385.242)" fill="url(#paint12_linear_506_60396)"/>
<rect width="4.98393" height="4.98393" transform="matrix(0.70655 0.707664 -0.70655 0.707663 237.918 385.242)" fill="url(#paint13_linear_506_60396)"/>
<line x1="237.488" y1="389.012" x2="161.958" y2="389.012" stroke="url(#paint14_radial_506_60396)" stroke-width="3"/>
<rect width="7.47589" height="7.47589" transform="matrix(-0.70655 -0.707664 0.70655 -0.707663 158.336 394.16)" fill="url(#paint15_linear_506_60396)"/>
<rect width="4.98393" height="4.98393" transform="matrix(-0.70655 -0.707664 0.70655 -0.707663 164.25 392.488)" fill="url(#paint16_linear_506_60396)"/>
<rect x="16.7773" y="36.7539" width="219.44" height="341.162" stroke="url(#paint17_linear_506_60396)" stroke-width="3"/>
<ellipse cx="126.487" cy="35.3513" rx="18.26" ry="18.2888" fill="url(#paint18_linear_506_60396)"/>
<ellipse cx="135.633" cy="35.2502" rx="14.11" ry="13.3009" fill="#FEFDFD"/>
<path d="M148.246 35.2454C148.246 47.2745 138.51 57.022 126.506 57.022C114.501 57.022 104.766 47.2745 104.766 35.2454C104.766 23.2163 114.501 13.4688 126.506 13.4688C138.51 13.4688 148.246 23.2163 148.246 35.2454Z" stroke="#E5BB7B" stroke-width="3"/>
<path d="M136.464 28.5977L137.955 33.193L142.779 33.193L138.876 36.0331L140.367 40.6285L136.464 37.7884L132.561 40.6285L134.052 36.0331L130.149 33.193L134.973 33.193L136.464 28.5977Z" fill="url(#paint19_linear_506_60396)"/>
<ellipse cx="18.26" cy="18.2888" rx="18.26" ry="18.2888" transform="matrix(-1 -8.74228e-08 -8.74228e-08 1 144.785 365.391)" fill="url(#paint20_linear_506_60396)"/>
<ellipse cx="14.11" cy="13.3009" rx="14.11" ry="13.3009" transform="matrix(-1 -8.74228e-08 -8.74228e-08 1 131.488 370.277)" fill="#F2EBE6"/>
<path d="M104.766 383.574C104.766 395.603 114.502 405.35 126.506 405.35C138.511 405.35 148.246 395.603 148.246 383.574C148.246 371.544 138.511 361.797 126.506 361.797C114.502 361.797 104.766 371.544 104.766 383.574Z" stroke="#E5BB7B" stroke-width="3"/>
<path d="M116.547 376.926L115.057 381.521L110.232 381.521L114.135 384.361L112.645 388.957L116.547 386.117L120.45 388.957L118.96 384.361L122.863 381.521L118.038 381.521L116.547 376.926Z" fill="url(#paint21_linear_506_60396)"/>
<path d="M203.433 210.403C203.433 253.238 168.763 287.959 126.002 287.959C83.2397 287.959 48.5703 253.238 48.5703 210.403C48.5703 167.568 83.2397 132.848 126.002 132.848C168.763 132.848 203.433 167.568 203.433 210.403Z" stroke="white" stroke-width="3"/>
<path d="M220.188 210.731C220.188 262.655 178.163 304.743 126.327 304.743C74.4904 304.743 32.4648 262.655 32.4648 210.731C32.4648 158.807 74.4904 116.719 126.327 116.719C178.163 116.719 220.188 158.807 220.188 210.731Z" stroke="white" stroke-width="3"/>
<path d="M198.045 210.044C198.045 249.737 165.92 281.905 126.302 281.905C86.6835 281.905 54.5586 249.737 54.5586 210.044C54.5586 170.352 86.6835 138.184 126.302 138.184C165.92 138.184 198.045 170.352 198.045 210.044Z" stroke="white" stroke-width="6"/>
<ellipse cx="126.179" cy="210.581" rx="58.9568" ry="59.0497" stroke="white" stroke-width="2"/>
<ellipse cx="185.127" cy="210.254" rx="6.44337" ry="6.45352" fill="white"/>
<ellipse cx="94.2793" cy="159.922" rx="6.44337" ry="6.45352" fill="white"/>
<ellipse cx="94.2793" cy="259.946" rx="6.44337" ry="6.45352" fill="white"/>
<ellipse cx="156.783" cy="259.946" rx="6.44337" ry="6.45352" fill="white"/>
<ellipse cx="156.783" cy="159.922" rx="6.44337" ry="6.45352" fill="white"/>
<ellipse cx="67.2129" cy="210.254" rx="6.44337" ry="6.45352" fill="white"/>
<path d="M74.5926 210.261C74.5926 214.343 71.2886 217.65 67.2162 217.65C63.1438 217.65 59.8398 214.343 59.8398 210.261C59.8398 206.178 63.1438 202.871 67.2162 202.871C71.2886 202.871 74.5926 206.178 74.5926 210.261Z" stroke="white" stroke-width="2"/>
<path d="M101.659 159.921C101.659 164.003 98.355 167.31 94.2826 167.31C90.2102 167.31 86.9062 164.003 86.9062 159.921C86.9062 155.838 90.2103 152.531 94.2826 152.531C98.355 152.531 101.659 155.838 101.659 159.921Z" stroke="white" stroke-width="2"/>
<path d="M164.155 159.921C164.155 164.003 160.851 167.31 156.779 167.31C152.706 167.31 149.402 164.003 149.402 159.921C149.402 155.838 152.706 152.531 156.779 152.531C160.851 152.531 164.155 155.838 164.155 159.921Z" stroke="white" stroke-width="2"/>
<path d="M192.507 210.261C192.507 214.343 189.203 217.65 185.13 217.65C181.058 217.65 177.754 214.343 177.754 210.261C177.754 206.178 181.058 202.871 185.13 202.871C189.203 202.871 192.507 206.178 192.507 210.261Z" stroke="white" stroke-width="2"/>
<path d="M101.659 259.952C101.659 264.035 98.355 267.342 94.2826 267.342C90.2102 267.342 86.9062 264.035 86.9062 259.952C86.9062 255.869 90.2103 252.563 94.2826 252.563C98.355 252.563 101.659 255.869 101.659 259.952Z" stroke="white" stroke-width="2"/>
<path d="M164.155 259.952C164.155 264.035 160.851 267.342 156.779 267.342C152.706 267.342 149.402 264.035 149.402 259.952C149.402 255.869 152.706 252.563 156.779 252.563C160.851 252.563 164.155 255.869 164.155 259.952Z" stroke="white" stroke-width="2"/>
<path d="M164.155 259.952C164.155 264.035 160.851 267.342 156.779 267.342C152.706 267.342 149.402 264.035 149.402 259.952C149.402 255.869 152.706 252.563 156.779 252.563C160.851 252.563 164.155 255.869 164.155 259.952Z" stroke="white" stroke-width="2"/>
<path d="M66.8436 244.76L126.494 141.28L186.145 244.76L66.8436 244.76Z" stroke="white" stroke-width="2"/>
<path d="M70.1928 242.827L126.495 145.155L182.798 242.827L70.1928 242.827Z" stroke="white" stroke-width="2"/>
<path d="M126.495 279.238L66.8446 175.757L186.146 175.757L126.495 279.238Z" stroke="white" stroke-width="2"/>
<path d="M126.499 275.365L70.1968 177.692L182.802 177.692L126.499 275.365Z" stroke="white" stroke-width="2"/>
<path d="M155.779 210.261C155.779 226.462 142.666 239.593 126.495 239.593C110.323 239.593 97.2109 226.462 97.2109 210.261C97.2109 194.06 110.323 180.93 126.495 180.93C142.666 180.93 155.779 194.06 155.779 210.261Z" stroke="white" stroke-width="2"/>
<path d="M101.266 224.838L101.266 195.662L126.494 181.073L151.721 195.661L151.721 224.837L126.493 239.425L101.266 224.838Z" stroke="white" stroke-width="2"/>
<path d="M99.5922 225.804L99.5922 194.692L126.494 179.136L153.395 194.691L153.395 225.804L126.493 241.36L99.5922 225.804Z" stroke="white" stroke-width="2"/>
<rect x="113.324" y="189.957" width="26.3508" height="40.5933" stroke="white" stroke-width="2"/>
<path d="M112.965 197.027L118.442 189.606L112.965 189.606L112.965 197.027Z" fill="white" fill-opacity="0.5"/>
<path d="M112.965 197.027L118.442 189.606L112.965 189.606L112.965 197.027Z" fill="white" fill-opacity="0.5"/>
<path d="M140.344 197.027L134.867 189.606L140.344 189.606L140.344 197.027Z" fill="white" fill-opacity="0.5"/>
<path d="M140.344 197.027L134.867 189.606L140.344 189.606L140.344 197.027Z" fill="white" fill-opacity="0.5"/>
<path d="M112.965 223.809L118.442 231.23L112.965 231.23L112.965 223.809Z" fill="white" fill-opacity="0.5"/>
<path d="M112.965 223.809L118.442 231.23L112.965 231.23L112.965 223.809Z" fill="white" fill-opacity="0.5"/>
<path d="M140.344 223.809L134.867 231.23L140.344 231.23L140.344 223.809Z" fill="white" fill-opacity="0.5"/>
<path d="M140.344 223.809L134.867 231.23L140.344 231.23L140.344 223.809Z" fill="white" fill-opacity="0.5"/>
<line y1="-1" x2="9.6748" y2="-1" transform="matrix(-0.599395 0.800453 -0.799546 -0.600605 118.121 188.957)" stroke="white" stroke-width="2"/>
<line y1="-1" x2="9.6748" y2="-1" transform="matrix(0.599395 0.800453 0.799546 -0.600605 134.867 188.957)" stroke="white" stroke-width="2"/>
<line y1="-1" x2="9.6748" y2="-1" transform="matrix(0.599395 -0.800453 0.799546 0.600605 134.875 231.555)" stroke="white" stroke-width="2"/>
<line y1="-1" x2="9.6748" y2="-1" transform="matrix(-0.599395 -0.800453 -0.799546 0.600605 118.121 231.555)" stroke="white" stroke-width="2"/>
<path d="M203.444 210.407C203.444 253.242 168.775 287.963 126.013 287.963C83.2514 287.963 48.582 253.242 48.582 210.407C48.582 167.572 83.2514 132.852 126.013 132.852C168.775 132.852 203.445 167.572 203.444 210.407Z" stroke="white" stroke-width="3"/>
<path d="M220.2 210.735C220.2 262.658 178.175 304.747 126.338 304.747C74.5021 304.747 32.4765 262.658 32.4766 210.735C32.4766 158.811 74.5022 116.723 126.338 116.723C178.175 116.723 220.2 158.811 220.2 210.735Z" stroke="white" stroke-width="3"/>
<path d="M225.276 211.072C225.276 265.711 181.235 309.999 126.913 309.999C72.5918 309.999 28.5508 265.711 28.5508 211.072C28.5508 156.433 72.5918 112.145 126.913 112.145C181.235 112.145 225.276 156.433 225.276 211.072Z" stroke="white"/>
<path d="M198.049 210.041C198.049 249.733 165.924 281.901 126.306 281.901C86.6874 281.901 54.5625 249.733 54.5625 210.041C54.5625 170.348 86.6874 138.18 126.306 138.18C165.924 138.18 198.049 170.348 198.049 210.041Z" stroke="white" stroke-width="6"/>
<ellipse cx="126.183" cy="210.581" rx="58.9568" ry="59.0497" stroke="white" stroke-width="2"/>
<ellipse cx="185.131" cy="210.246" rx="6.44337" ry="6.45352" fill="white"/>
<ellipse cx="94.2832" cy="159.914" rx="6.44337" ry="6.45352" fill="white"/>
<ellipse cx="94.2832" cy="259.938" rx="6.44337" ry="6.45352" fill="white"/>
<ellipse cx="156.787" cy="259.938" rx="6.44337" ry="6.45352" fill="white"/>
<ellipse cx="156.787" cy="159.914" rx="6.44337" ry="6.45352" fill="white"/>
<ellipse cx="67.2246" cy="210.246" rx="6.44337" ry="6.45352" fill="white"/>
<path d="M74.5965 210.253C74.5965 214.336 71.2925 217.642 67.2201 217.642C63.1477 217.642 59.8437 214.335 59.8437 210.253C59.8437 206.17 63.1478 202.863 67.2201 202.863C71.2925 202.863 74.5965 206.17 74.5965 210.253Z" stroke="white" stroke-width="2"/>
<path d="M101.663 159.913C101.663 163.996 98.3589 167.303 94.2865 167.303C90.2142 167.303 86.9102 163.996 86.9102 159.913C86.9102 155.83 90.2142 152.523 94.2865 152.523C98.3589 152.523 101.663 155.83 101.663 159.913Z" stroke="white" stroke-width="2"/>
<path d="M164.159 159.913C164.159 163.996 160.855 167.303 156.783 167.303C152.71 167.303 149.406 163.996 149.406 159.913C149.406 155.83 152.71 152.523 156.783 152.523C160.855 152.523 164.159 155.83 164.159 159.913Z" stroke="white" stroke-width="2"/>
<path d="M192.511 210.253C192.511 214.336 189.207 217.642 185.134 217.642C181.062 217.642 177.758 214.335 177.758 210.253C177.758 206.17 181.062 202.863 185.134 202.863C189.207 202.863 192.511 206.17 192.511 210.253Z" stroke="white" stroke-width="2"/>
<path d="M101.663 259.944C101.663 264.027 98.3589 267.334 94.2865 267.334C90.2142 267.334 86.9102 264.027 86.9102 259.944C86.9102 255.862 90.2142 252.555 94.2865 252.555C98.3589 252.555 101.663 255.862 101.663 259.944Z" stroke="white" stroke-width="2"/>
<path d="M164.159 259.944C164.159 264.027 160.855 267.334 156.783 267.334C152.71 267.334 149.406 264.027 149.406 259.944C149.406 255.862 152.71 252.555 156.783 252.555C160.855 252.555 164.159 255.862 164.159 259.944Z" stroke="white" stroke-width="2"/>
<path d="M164.159 259.944C164.159 264.027 160.855 267.334 156.783 267.334C152.71 267.334 149.406 264.027 149.406 259.944C149.406 255.862 152.71 252.555 156.783 252.555C160.855 252.555 164.159 255.862 164.159 259.944Z" stroke="white" stroke-width="2"/>
<path d="M66.8475 244.76L126.498 141.28L186.149 244.76L66.8475 244.76Z" stroke="white" stroke-width="2"/>
<path d="M70.1967 242.827L126.499 145.155L182.802 242.827L70.1967 242.827Z" stroke="white" stroke-width="2"/>
<path d="M126.499 279.238L66.8485 175.757L186.15 175.757L126.499 279.238Z" stroke="white" stroke-width="2"/>
<path d="M126.503 275.365L70.2007 177.692L182.806 177.692L126.503 275.365Z" stroke="white" stroke-width="2"/>
<path d="M155.786 210.253C155.786 226.454 142.674 239.585 126.503 239.585C110.331 239.585 97.2187 226.454 97.2187 210.253C97.2187 194.053 110.331 180.922 126.503 180.922C142.674 180.922 155.786 194.053 155.786 210.253Z" stroke="white" stroke-width="2"/>
<path d="M101.278 224.838L101.278 195.662L126.506 181.073L151.732 195.661L151.732 224.837L126.505 239.425L101.278 224.838Z" stroke="white" stroke-width="2"/>
<path d="M99.6039 225.804L99.6039 194.692L126.506 179.136L153.406 194.691L153.406 225.804L126.505 241.36L99.6039 225.804Z" stroke="white" stroke-width="2"/>
<rect x="113.328" y="189.957" width="26.3508" height="40.5933" stroke="white" stroke-width="2"/>
<path d="M112.969 197.027L118.446 189.606L112.969 189.606L112.969 197.027Z" fill="white" fill-opacity="0.5"/>
<path d="M112.969 197.027L118.446 189.606L112.969 189.606L112.969 197.027Z" fill="white" fill-opacity="0.5"/>
<path d="M140.348 197.027L134.871 189.606L140.348 189.606L140.348 197.027Z" fill="white" fill-opacity="0.5"/>
<path d="M140.348 197.027L134.871 189.606L140.348 189.606L140.348 197.027Z" fill="white" fill-opacity="0.5"/>
<path d="M112.969 223.809L118.446 231.23L112.969 231.23L112.969 223.809Z" fill="white" fill-opacity="0.5"/>
<path d="M112.969 223.809L118.446 231.23L112.969 231.23L112.969 223.809Z" fill="white" fill-opacity="0.5"/>
<path d="M140.348 223.809L134.871 231.23L140.348 231.23L140.348 223.809Z" fill="white" fill-opacity="0.5"/>
<path d="M140.348 223.809L134.871 231.23L140.348 231.23L140.348 223.809Z" fill="white" fill-opacity="0.5"/>
<line y1="-1" x2="9.6748" y2="-1" transform="matrix(-0.599395 0.800453 -0.799546 -0.600605 118.125 188.957)" stroke="white" stroke-width="2"/>
<line y1="-1" x2="9.6748" y2="-1" transform="matrix(0.599395 0.800453 0.799546 -0.600605 134.871 188.957)" stroke="white" stroke-width="2"/>
<line y1="-1" x2="9.6748" y2="-1" transform="matrix(0.599395 -0.800453 0.799546 0.600605 134.879 231.555)" stroke="white" stroke-width="2"/>
<line y1="-1" x2="9.6748" y2="-1" transform="matrix(-0.599395 -0.800453 -0.799546 0.600605 118.125 231.555)" stroke="white" stroke-width="2"/>
<path d="M135.211 115.331C135.211 120.154 131.308 124.06 126.498 124.06C121.688 124.06 117.785 120.154 117.785 115.331C117.785 110.508 121.688 106.602 126.498 106.602C131.308 106.602 135.211 110.508 135.211 115.331Z" fill="#FBF9F8" stroke="white" stroke-width="3"/>
<path d="M135.211 306.819C135.211 311.642 131.308 315.548 126.498 315.548C121.688 315.548 117.785 311.642 117.785 306.819C117.785 301.996 121.688 298.09 126.498 298.09C131.308 298.09 135.211 301.996 135.211 306.819Z" fill="#F4EEEB" stroke="white" stroke-width="3"/>
<path d="M213.643 170.755C209.476 173.165 204.146 171.735 201.739 167.56C199.332 163.384 200.761 158.046 204.928 155.637C209.094 153.227 214.424 154.656 216.831 158.832C219.239 163.008 217.809 168.346 213.643 170.755Z" fill="#FBF9F8" stroke="white" stroke-width="3"/>
<path d="M48.0684 266.505C43.9017 268.915 38.5718 267.485 36.1647 263.31C33.7576 259.134 35.1868 253.796 39.3536 251.387C43.5203 248.977 48.8501 250.406 51.2572 254.582C53.6643 258.758 52.2351 264.096 48.0684 266.505Z" fill="#F4EEEB" stroke="white" stroke-width="3"/>
<path d="M48.0743 155.634C52.2411 158.044 53.6703 163.381 51.2632 167.557C48.8561 171.733 43.5262 173.162 39.3595 170.753C35.1928 168.343 33.7636 163.005 36.1707 158.83C38.5778 154.654 43.9076 153.225 48.0743 155.634Z" fill="#FBF9F8" stroke="white" stroke-width="3"/>
<path d="M213.649 251.384C217.815 253.794 219.244 259.131 216.837 263.307C214.43 267.483 209.1 268.912 204.934 266.503C200.767 264.093 199.338 258.755 201.745 254.58C204.152 250.404 209.482 248.975 213.649 251.384Z" fill="#F4EEEB" stroke="white" stroke-width="3"/>
<path d="M132.448 105.009C138.07 108.26 139.997 115.461 136.751 121.093C133.504 126.726 126.314 128.655 120.692 125.404C115.069 122.152 113.142 114.951 116.389 109.319C119.635 103.687 126.825 101.758 132.448 105.009Z" stroke="white"/>
<path d="M132.311 296.743C137.934 299.995 139.86 307.196 136.614 312.828C133.367 318.46 126.177 320.389 120.555 317.138C114.932 313.887 113.005 306.686 116.252 301.053C119.499 295.421 126.689 293.492 132.311 296.743Z" stroke="white"/>
<path d="M221.187 163.197C221.187 169.701 215.923 174.972 209.431 174.972C202.94 174.972 197.676 169.701 197.676 163.197C197.676 156.693 202.94 151.422 209.431 151.422C215.923 151.422 221.187 156.693 221.187 163.197Z" stroke="white"/>
<path d="M55.3317 258.947C55.3317 265.451 50.0677 270.722 43.576 270.722C37.0842 270.722 31.8203 265.451 31.8203 258.947C31.8203 252.443 37.0842 247.172 43.576 247.172C50.0677 247.172 55.3317 252.443 55.3317 258.947Z" stroke="white"/>
<path d="M37.7601 152.879C43.3825 149.627 50.5725 151.556 53.8191 157.189C57.0657 162.821 55.1388 170.022 49.5164 173.273C43.8939 176.524 36.7039 174.595 33.4574 168.963C30.2108 163.331 32.1377 156.13 37.7601 152.879Z" stroke="white"/>
<path d="M203.479 248.871C209.101 245.619 216.291 247.549 219.538 253.181C222.784 258.813 220.858 266.014 215.235 269.265C209.613 272.516 202.423 270.587 199.176 264.955C195.93 259.323 197.856 252.122 203.479 248.871Z" stroke="white"/>
<line y1="-1.5" x2="12.0683" y2="-1.5" transform="matrix(0.865684 0.500591 -0.49941 0.866366 51.7461 168.922)" stroke="white" stroke-width="3"/>
<line x1="126.777" y1="124.738" x2="126.777" y2="136.821" stroke="white" stroke-width="3"/>
<line x1="126.777" y1="285.125" x2="126.777" y2="297.208" stroke="white" stroke-width="3"/>
<line y1="-1.5" x2="12.0683" y2="-1.5" transform="matrix(0.865684 -0.500591 0.499409 0.866366 52.5586 254.348)" stroke="white" stroke-width="3"/>
<line y1="-1.5" x2="12.0683" y2="-1.5" transform="matrix(-0.865684 -0.500591 -0.49941 0.866366 201.082 254.348)" stroke="white" stroke-width="3"/>
<line y1="-1.5" x2="12.0683" y2="-1.5" transform="matrix(-0.865684 0.500591 0.499409 0.866366 201.082 168.922)" stroke="white" stroke-width="3"/>
<path d="M198.707 98.4297L199.825 101.876L203.443 101.876L200.516 104.006L201.634 107.453L198.707 105.323L195.779 107.453L196.897 104.006L193.97 101.876L197.588 101.876L198.707 98.4297Z" fill="white"/>
<path d="M217.8 337.848L218.918 341.294L222.537 341.294L219.609 343.424L220.727 346.871L217.8 344.741L214.873 346.871L215.991 343.424L213.064 341.294L216.682 341.294L217.8 337.848Z" fill="white"/>
<path d="M46.8198 317.063L47.9379 320.509L51.5561 320.509L48.6289 322.639L49.747 326.086L46.8198 323.956L43.8927 326.086L45.0108 322.639L42.0836 320.509L45.7018 320.509L46.8198 317.063Z" fill="white"/>
<path d="M173.808 332.863L174.926 336.31L178.544 336.31L175.617 338.44L176.735 341.886L173.808 339.756L170.881 341.886L171.999 338.44L169.072 336.31L172.69 336.31L173.808 332.863Z" fill="white"/>
<path d="M80.8472 70.1719L81.9653 73.6184L85.5835 73.6184L82.6563 75.7485L83.7744 79.195L80.8472 77.0649L77.92 79.195L79.0381 75.7485L76.1109 73.6184L79.7291 73.6184L80.8472 70.1719Z" fill="white"/>
<path d="M36.855 65.1836L37.9731 68.6301L41.5913 68.6301L38.6641 70.7602L39.7822 74.2067L36.855 72.0766L33.9278 74.2067L35.0459 70.7602L32.1187 68.6301L35.7369 68.6301L36.855 65.1836Z" fill="white"/>
<path d="M119.46 214.732L126.501 202.517L133.543 214.732L119.46 214.732Z" stroke="white"/>
<path d="M119.46 206.588L126.501 218.804L133.543 206.588L119.46 206.588Z" stroke="white"/>
<path d="M115.717 210.589L131.776 201.303L131.776 219.875L115.717 210.589Z" stroke="white" stroke-width="2"/>
<path d="M121.072 201.298L121.072 219.871L137.131 210.584L121.072 201.298Z" stroke="white" stroke-width="2"/>
<path d="M135.955 210.659C135.955 215.893 131.719 220.135 126.495 220.135C121.271 220.135 117.035 215.893 117.035 210.659C117.035 205.425 121.271 201.184 126.495 201.184C131.719 201.184 135.955 205.425 135.955 210.659Z" stroke="white"/>
<defs>
<filter id="filter0_d_506_60396" x="0" y="0" width="257" height="423.652" filterUnits="userSpaceOnUse" color-interpolation-filters="sRGB">
<feFlood flood-opacity="0" result="BackgroundImageFix"/>
<feColorMatrix in="SourceAlpha" type="matrix" values="0 0 0 0 0 0 0 0 0 0 0 0 0 0 0 0 0 0 127 0" result="hardAlpha"/>
<feOffset dx="2" dy="2"/>
<feGaussianBlur stdDeviation="2"/>
<feComposite in2="hardAlpha" operator="out"/>
<feColorMatrix type="matrix" values="0 0 0 0 0 0 0 0 0 0 0 0 0 0 0 0 0 0 0.56 0"/>
<feBlend mode="normal" in2="BackgroundImageFix" result="effect1_dropShadow_506_60396"/>
<feBlend mode="normal" in="SourceGraphic" in2="effect1_dropShadow_506_60396" result="shape"/>
</filter>
<linearGradient id="paint0_linear_506_60396" x1="126.5" y1="2" x2="126.5" y2="417.654" gradientUnits="userSpaceOnUse">
<stop offset="0.0001" stop-color="white"/>
<stop offset="1" stop-color="#F1E9E4"/>
</linearGradient>
<radialGradient id="paint1_radial_506_60396" cx="0" cy="0" r="1" gradientUnits="userSpaceOnUse" gradientTransform="translate(53.0384 26.6172) rotate(90) scale(0.5 37.765)">
<stop stop-color="#E5BB7B"/>
<stop offset="0.494792" stop-color="#FFE6BF"/>
<stop offset="1" stop-color="#E5BB7B"/>
</radialGradient>
<linearGradient id="paint2_linear_506_60396" x1="3.73795" y1="0" x2="3.73795" y2="7.47589" gradientUnits="userSpaceOnUse">
<stop stop-color="#E6BB7B"/>
<stop offset="1" stop-color="#E5BB7B"/>
</linearGradient>
<linearGradient id="paint3_linear_506_60396" x1="2.49196" y1="0" x2="2.49196" y2="4.98393" gradientUnits="userSpaceOnUse">
<stop stop-color="#E6BB7B"/>
<stop offset="1" stop-color="#E5BB7B"/>
</linearGradient>
<linearGradient id="paint4_linear_506_60396" x1="2.49196" y1="0" x2="2.49196" y2="4.98393" gradientUnits="userSpaceOnUse">
<stop stop-color="#E6BB7B"/>
<stop offset="1" stop-color="#E5BB7B"/>
</linearGradient>
<linearGradient id="paint5_linear_506_60396" x1="2.49196" y1="0" x2="2.49196" y2="4.98393" gradientUnits="userSpaceOnUse">
<stop stop-color="#E6BB7B"/>
<stop offset="1" stop-color="#E5BB7B"/>
</linearGradient>
<radialGradient id="paint6_radial_506_60396" cx="0" cy="0" r="1" gradientUnits="userSpaceOnUse" gradientTransform="translate(199.723 22.8984) rotate(-90) scale(0.5 37.765)">
<stop stop-color="#E5BB7B"/>
<stop offset="0.494792" stop-color="#FFE6BF"/>
<stop offset="1" stop-color="#E5BB7B"/>
</radialGradient>
<linearGradient id="paint7_linear_506_60396" x1="3.73795" y1="0" x2="3.73795" y2="7.47589" gradientUnits="userSpaceOnUse">
<stop stop-color="#E6BB7B"/>
<stop offset="1" stop-color="#E5BB7B"/>
</linearGradient>
<linearGradient id="paint8_linear_506_60396" x1="2.49196" y1="0" x2="2.49196" y2="4.98393" gradientUnits="userSpaceOnUse">
<stop stop-color="#E6BB7B"/>
<stop offset="1" stop-color="#E5BB7B"/>
</linearGradient>
<radialGradient id="paint9_radial_506_60396" cx="0" cy="0" r="1" gradientUnits="userSpaceOnUse" gradientTransform="translate(53.0384 390.73) rotate(90) scale(0.5 37.765)">
<stop stop-color="#E5BB7B"/>
<stop offset="0.494792" stop-color="#FFE6BF"/>
<stop offset="1" stop-color="#E5BB7B"/>
</radialGradient>
<linearGradient id="paint10_linear_506_60396" x1="3.73795" y1="0" x2="3.73795" y2="7.47589" gradientUnits="userSpaceOnUse">
<stop stop-color="#E6BB7B"/>
<stop offset="1" stop-color="#E5BB7B"/>
</linearGradient>
<linearGradient id="paint11_linear_506_60396" x1="2.49196" y1="0" x2="2.49196" y2="4.98393" gradientUnits="userSpaceOnUse">
<stop stop-color="#E6BB7B"/>
<stop offset="1" stop-color="#E5BB7B"/>
</linearGradient>
<linearGradient id="paint12_linear_506_60396" x1="2.49196" y1="0" x2="2.49196" y2="4.98393" gradientUnits="userSpaceOnUse">
<stop stop-color="#E6BB7B"/>
<stop offset="1" stop-color="#E5BB7B"/>
</linearGradient>
<linearGradient id="paint13_linear_506_60396" x1="2.49196" y1="0" x2="2.49196" y2="4.98393" gradientUnits="userSpaceOnUse">
<stop stop-color="#E6BB7B"/>
<stop offset="1" stop-color="#E5BB7B"/>
</linearGradient>
<radialGradient id="paint14_radial_506_60396" cx="0" cy="0" r="1" gradientUnits="userSpaceOnUse" gradientTransform="translate(199.723 387.012) rotate(-90) scale(0.5 37.765)">
<stop stop-color="#E5BB7B"/>
<stop offset="0.494792" stop-color="#FFE6BF"/>
<stop offset="1" stop-color="#E5BB7B"/>
</radialGradient>
<linearGradient id="paint15_linear_506_60396" x1="3.73795" y1="0" x2="3.73795" y2="7.47589" gradientUnits="userSpaceOnUse">
<stop stop-color="#E6BB7B"/>
<stop offset="1" stop-color="#E5BB7B"/>
</linearGradient>
<linearGradient id="paint16_linear_506_60396" x1="2.49196" y1="0" x2="2.49196" y2="4.98393" gradientUnits="userSpaceOnUse">
<stop stop-color="#E6BB7B"/>
<stop offset="1" stop-color="#E5BB7B"/>
</linearGradient>
<linearGradient id="paint17_linear_506_60396" x1="126.497" y1="35.2539" x2="126.497" y2="379.416" gradientUnits="userSpaceOnUse">
<stop stop-color="#CC9E58"/>
<stop offset="0.177083" stop-color="#F7C479"/>
<stop offset="0.609375" stop-color="#CC9E58"/>
<stop offset="1" stop-color="#FFDAA3"/>
</linearGradient>
<linearGradient id="paint18_linear_506_60396" x1="126.487" y1="17.0625" x2="126.487" y2="53.6401" gradientUnits="userSpaceOnUse">
<stop stop-color="#E5BB7B"/>
<stop offset="0.609375" stop-color="#FFE1B3"/>
<stop offset="1" stop-color="#E5BB7B"/>
</linearGradient>
<linearGradient id="paint19_linear_506_60396" x1="136.464" y1="28.5977" x2="136.464" y2="41.8986" gradientUnits="userSpaceOnUse">
<stop stop-color="#E5BB7B"/>
<stop offset="0.567708" stop-color="#F8D6A2"/>
<stop offset="1" stop-color="#E5BB7B"/>
</linearGradient>
<linearGradient id="paint20_linear_506_60396" x1="18.26" y1="0" x2="18.26" y2="36.5776" gradientUnits="userSpaceOnUse">
<stop stop-color="#E5BB7B"/>
<stop offset="0.609375" stop-color="#FFE1B3"/>
<stop offset="1" stop-color="#E5BB7B"/>
</linearGradient>
<linearGradient id="paint21_linear_506_60396" x1="116.547" y1="376.926" x2="116.547" y2="390.227" gradientUnits="userSpaceOnUse">
<stop stop-color="#E5BB7B"/>
<stop offset="0.567708" stop-color="#F8D6A2"/>
<stop offset="1" stop-color="#E5BB7B"/>
</linearGradient>
</defs>
</svg>
